# xmcd
#
# Track frame offsets:
#	150
#	11437
#	33570
#	64214
#	84944
#	100285
#	117248
#	134759
#	144735
#	161378
#	175551
#
# Disc length: 2560 seconds
# Revision: 0
# Processed by: cddbd v1.5.2PL0 Copyright (c) Steve Scherf et al.
# Submitted via: dBpowerAMP V12.0
#
DISCID=8e09fe0b
DTITLE=John Lisi - Blues for Choe
DYEAR=2002
DGENRE=Blues
TTITLE0=Hit the Ground Runnin'
TTITLE1=No Good Man
TTITLE2=Blues for Chloe
TTITLE3=I Guess I Got It All
TTITLE4=Skat
TTITLE5=Ain't Nothin' Like My Baby
TTITLE6=	Caldonia
TTITLE7=Think It Over
TTITLE8=Sooth Your Soul
TTITLE9=Little Schoolgirl
TTITLE10=	Broke-Ass Musician
EXTD=
EXTT0=
EXTT1=
EXTT2=
EXTT3=
EXTT4=
EXTT5=
EXTT6=
EXTT7=
EXTT8=
EXTT9=
EXTT10=
PLAYORDER=
